<svg width="337" height="100" viewBox="0 0 337 100" fill="none" xmlns="http://www.w3.org/2000/svg">
<circle cx="50" cy="50" r="50" fill="#4EA652"/>
<circle cx="72" cy="50" r="50" fill="#F6F7F9" fill-opacity="0.32"/>
<path d="M64.3409 25.7045C64.2652 24.8712 63.928 24.2235 63.3295 23.7614C62.7386 23.2917 61.8939 23.0568 60.7955 23.0568C60.0682 23.0568 59.4621 23.1515 58.9773 23.3409C58.4924 23.5303 58.1288 23.7917 57.8864 24.125C57.6439 24.4508 57.5189 24.8258 57.5114 25.25C57.4962 25.5985 57.5644 25.9053 57.7159 26.1705C57.875 26.4356 58.1023 26.6705 58.3977 26.875C58.7008 27.072 59.0644 27.2462 59.4886 27.3977C59.9129 27.5492 60.3902 27.6818 60.9205 27.7955L62.9205 28.25C64.072 28.5 65.0871 28.8333 65.9659 29.25C66.8523 29.6667 67.5947 30.1629 68.1932 30.7386C68.7992 31.3144 69.2576 31.9773 69.5682 32.7273C69.8788 33.4773 70.0379 34.3182 70.0455 35.25C70.0379 36.7197 69.6667 37.9811 68.9318 39.0341C68.197 40.0871 67.1402 40.8939 65.7614 41.4545C64.3902 42.0152 62.7348 42.2955 60.7955 42.2955C58.8485 42.2955 57.1515 42.0038 55.7045 41.4205C54.2576 40.8371 53.1326 39.9508 52.3295 38.7614C51.5265 37.572 51.1136 36.0682 51.0909 34.25H56.4773C56.5227 35 56.7235 35.625 57.0795 36.125C57.4356 36.625 57.9242 37.0038 58.5455 37.2614C59.1742 37.5189 59.9015 37.6477 60.7273 37.6477C61.4848 37.6477 62.1288 37.5455 62.6591 37.3409C63.197 37.1364 63.6098 36.8523 63.8977 36.4886C64.1856 36.125 64.3333 35.7083 64.3409 35.2386C64.3333 34.7992 64.197 34.4242 63.9318 34.1136C63.6667 33.7955 63.2576 33.5227 62.7045 33.2955C62.1591 33.0606 61.4621 32.8447 60.6136 32.6477L58.1818 32.0795C56.1667 31.6174 54.5795 30.8712 53.4205 29.8409C52.2614 28.803 51.6856 27.4015 51.6932 25.6364C51.6856 24.197 52.072 22.9356 52.8523 21.8523C53.6326 20.7689 54.7121 19.9242 56.0909 19.3182C57.4697 18.7121 59.0417 18.4091 60.8068 18.4091C62.6098 18.4091 64.1742 18.7159 65.5 19.3295C66.8333 19.9356 67.8674 20.7879 68.6023 21.8864C69.3371 22.9848 69.7121 24.2576 69.7273 25.7045H64.3409ZM72.125 23.2955V18.7273H91.7955V23.2955H84.7386V42H79.1932V23.2955H72.125ZM96.6705 42H90.625L98.4773 18.7273H105.966L113.818 42H107.773L102.307 24.5909H102.125L96.6705 42ZM95.8636 32.8409H108.5V37.1136H95.8636V32.8409ZM136.131 18.7273V42H131.358L122.097 28.5682H121.949V42H116.324V18.7273H121.165L130.324 32.1364H130.517V18.7273H136.131ZM148.27 42H139.668V18.7273H148.259C150.63 18.7273 152.671 19.1932 154.384 20.125C156.103 21.0492 157.429 22.3826 158.361 24.125C159.293 25.8598 159.759 27.9356 159.759 30.3523C159.759 32.7765 159.293 34.8598 158.361 36.6023C157.437 38.3447 156.115 39.6818 154.395 40.6136C152.675 41.5379 150.634 42 148.27 42ZM145.293 37.2045H148.054C149.357 37.2045 150.459 36.9848 151.361 36.5455C152.27 36.0985 152.955 35.375 153.418 34.375C153.887 33.3674 154.122 32.0265 154.122 30.3523C154.122 28.678 153.887 27.3447 153.418 26.3523C152.948 25.3523 152.255 24.6326 151.338 24.1932C150.429 23.7462 149.308 23.5227 147.974 23.5227H145.293V37.2045ZM166.702 42H160.656L168.509 18.7273H175.997L183.849 42H177.804L172.338 24.5909H172.156L166.702 42ZM165.895 32.8409H178.531V37.1136H165.895V32.8409ZM186.355 42V18.7273H195.969C197.711 18.7273 199.215 19.0417 200.48 19.6705C201.753 20.2917 202.734 21.1856 203.423 22.3523C204.113 23.5114 204.457 24.8864 204.457 26.4773C204.457 28.0909 204.105 29.4621 203.401 30.5909C202.696 31.7121 201.696 32.5682 200.401 33.1591C199.105 33.7424 197.571 34.0341 195.798 34.0341H189.719V29.6023H194.753C195.601 29.6023 196.31 29.4924 196.878 29.2727C197.454 29.0455 197.889 28.7045 198.185 28.25C198.48 27.7879 198.628 27.197 198.628 26.4773C198.628 25.7576 198.48 25.1629 198.185 24.6932C197.889 24.2159 197.454 23.8598 196.878 23.625C196.302 23.3826 195.594 23.2614 194.753 23.2614H191.98V42H186.355ZM199.457 31.3636L205.253 42H199.116L193.435 31.3636H199.457ZM216.145 42H207.543V18.7273H216.134C218.505 18.7273 220.546 19.1932 222.259 20.125C223.978 21.0492 225.304 22.3826 226.236 24.125C227.168 25.8598 227.634 27.9356 227.634 30.3523C227.634 32.7765 227.168 34.8598 226.236 36.6023C225.312 38.3447 223.99 39.6818 222.27 40.6136C220.55 41.5379 218.509 42 216.145 42ZM213.168 37.2045H215.929C217.232 37.2045 218.334 36.9848 219.236 36.5455C220.145 36.0985 220.83 35.375 221.293 34.375C221.762 33.3674 221.997 32.0265 221.997 30.3523C221.997 28.678 221.762 27.3447 221.293 26.3523C220.823 25.3523 220.13 24.6326 219.213 24.1932C218.304 23.7462 217.183 23.5227 215.849 23.5227H213.168V37.2045ZM57.3864 57.7273V81H51.7614V57.7273H57.3864ZM80.7244 57.7273V81H75.9517L66.6903 67.5682H66.5426V81H60.9176V57.7273H65.7585L74.9176 71.1364H75.1108V57.7273H80.7244ZM89.5455 57.7273L94.75 74.7727H94.9432L100.148 57.7273H106.443L98.5909 81H91.1023L83.25 57.7273H89.5455ZM108.949 81V57.7273H125.176V62.2955H114.574V67.0682H124.347V71.6477H114.574V76.4318H125.176V81H108.949ZM148.506 57.7273V81H143.733L134.472 67.5682H134.324V81H128.699V57.7273H133.54L142.699 71.1364H142.892V57.7273H148.506ZM151.281 62.2955V57.7273H170.952V62.2955H163.895V81H158.349V62.2955H151.281ZM194.602 69.3636C194.602 71.9242 194.11 74.0947 193.125 75.875C192.14 77.6553 190.807 79.0076 189.125 79.9318C187.451 80.8561 185.572 81.3182 183.489 81.3182C181.398 81.3182 179.515 80.8523 177.841 79.9205C176.167 78.9886 174.837 77.6364 173.852 75.8636C172.875 74.0833 172.386 71.9167 172.386 69.3636C172.386 66.803 172.875 64.6326 173.852 62.8523C174.837 61.072 176.167 59.7197 177.841 58.7955C179.515 57.8712 181.398 57.4091 183.489 57.4091C185.572 57.4091 187.451 57.8712 189.125 58.7955C190.807 59.7197 192.14 61.072 193.125 62.8523C194.11 64.6326 194.602 66.803 194.602 69.3636ZM188.852 69.3636C188.852 67.8485 188.636 66.5682 188.205 65.5227C187.78 64.4773 187.167 63.6856 186.364 63.1477C185.568 62.6098 184.61 62.3409 183.489 62.3409C182.375 62.3409 181.417 62.6098 180.614 63.1477C179.811 63.6856 179.193 64.4773 178.761 65.5227C178.337 66.5682 178.125 67.8485 178.125 69.3636C178.125 70.8788 178.337 72.1591 178.761 73.2045C179.193 74.25 179.811 75.0417 180.614 75.5795C181.417 76.1174 182.375 76.3864 183.489 76.3864C184.61 76.3864 185.568 76.1174 186.364 75.5795C187.167 75.0417 187.78 74.25 188.205 73.2045C188.636 72.1591 188.852 70.8788 188.852 69.3636ZM197.886 81V57.7273H207.5C209.242 57.7273 210.746 58.0417 212.011 58.6705C213.284 59.2917 214.265 60.1856 214.955 61.3523C215.644 62.5114 215.989 63.8864 215.989 65.4773C215.989 67.0909 215.636 68.4621 214.932 69.5909C214.227 70.7121 213.227 71.5682 211.932 72.1591C210.636 72.7424 209.102 73.0341 207.33 73.0341H201.25V68.6023H206.284C207.133 68.6023 207.841 68.4924 208.409 68.2727C208.985 68.0455 209.42 67.7045 209.716 67.25C210.011 66.7879 210.159 66.197 210.159 65.4773C210.159 64.7576 210.011 64.1629 209.716 63.6932C209.42 63.2159 208.985 62.8598 208.409 62.625C207.833 62.3826 207.125 62.2614 206.284 62.2614H203.511V81H197.886ZM210.989 70.3636L216.784 81H210.648L204.966 70.3636H210.989ZM216.884 57.7273H223.168L228.088 67.4659H228.293L233.213 57.7273H239.497L230.986 73.2273V81H225.395V73.2273L216.884 57.7273ZM257.332 81H248.73V57.7273H257.321C259.692 57.7273 261.734 58.1932 263.446 59.125C265.166 60.0492 266.491 61.3826 267.423 63.125C268.355 64.8598 268.821 66.9356 268.821 69.3523C268.821 71.7765 268.355 73.8598 267.423 75.6023C266.499 77.3447 265.177 78.6818 263.457 79.6136C261.738 80.5379 259.696 81 257.332 81ZM254.355 76.2045H257.116C258.42 76.2045 259.522 75.9848 260.423 75.5455C261.332 75.0985 262.018 74.375 262.48 73.375C262.95 72.3674 263.185 71.0265 263.185 69.3523C263.185 67.678 262.95 66.3447 262.48 65.3523C262.01 64.3523 261.317 63.6326 260.401 63.1932C259.491 62.7462 258.37 62.5227 257.037 62.5227H254.355V76.2045ZM275.764 81H269.719L277.571 57.7273H285.06L292.912 81H286.866L281.401 63.5909H281.219L275.764 81ZM274.957 71.8409H287.594V76.1136H274.957V71.8409ZM291.884 57.7273H298.168L303.088 67.4659H303.293L308.213 57.7273H314.497L305.986 73.2273V81H300.395V73.2273L291.884 57.7273ZM329.435 64.7045C329.359 63.8712 329.022 63.2235 328.423 62.7614C327.832 62.2917 326.988 62.0568 325.889 62.0568C325.162 62.0568 324.556 62.1515 324.071 62.3409C323.586 62.5303 323.223 62.7917 322.98 63.125C322.738 63.4508 322.613 63.8258 322.605 64.25C322.59 64.5985 322.658 64.9053 322.81 65.1705C322.969 65.4356 323.196 65.6705 323.491 65.875C323.795 66.072 324.158 66.2462 324.582 66.3977C325.007 66.5492 325.484 66.6818 326.014 66.7955L328.014 67.25C329.166 67.5 330.181 67.8333 331.06 68.25C331.946 68.6667 332.688 69.1629 333.287 69.7386C333.893 70.3144 334.351 70.9773 334.662 71.7273C334.973 72.4773 335.132 73.3182 335.139 74.25C335.132 75.7197 334.76 76.9811 334.026 78.0341C333.291 79.0871 332.234 79.8939 330.855 80.4545C329.484 81.0152 327.829 81.2955 325.889 81.2955C323.942 81.2955 322.245 81.0038 320.798 80.4205C319.351 79.8371 318.226 78.9508 317.423 77.7614C316.62 76.572 316.207 75.0682 316.185 73.25H321.571C321.616 74 321.817 74.625 322.173 75.125C322.529 75.625 323.018 76.0038 323.639 76.2614C324.268 76.5189 324.995 76.6477 325.821 76.6477C326.579 76.6477 327.223 76.5455 327.753 76.3409C328.291 76.1364 328.704 75.8523 328.991 75.4886C329.279 75.125 329.427 74.7083 329.435 74.2386C329.427 73.7992 329.291 73.4242 329.026 73.1136C328.76 72.7955 328.351 72.5227 327.798 72.2955C327.253 72.0606 326.556 71.8447 325.707 71.6477L323.276 71.0795C321.26 70.6174 319.673 69.8712 318.514 68.8409C317.355 67.803 316.779 66.4015 316.787 64.6364C316.779 63.197 317.166 61.9356 317.946 60.8523C318.726 59.7689 319.806 58.9242 321.185 58.3182C322.563 57.7121 324.135 57.4091 325.901 57.4091C327.704 57.4091 329.268 57.7159 330.594 58.3295C331.927 58.9356 332.961 59.7879 333.696 60.8864C334.431 61.9848 334.806 63.2576 334.821 64.7045H329.435Z" fill="white"/>
</svg>
